<mxfile host="app.diagrams.net" modified="2023-07-05T01:10:30.705Z" agent="Mozilla/5.0 (Windows NT 10.0; Win64; x64) AppleWebKit/537.36 (KHTML, like Gecko) Chrome/114.0.0.0 Safari/537.36 Edg/114.0.1823.67" etag="CBsot8cU3pwMeUftgQON" version="21.5.0" type="device">
  <diagram name="第 1 页" id="f5IYCxVnEsTNypBOwsmR">
    <mxGraphModel dx="1072" dy="558" grid="1" gridSize="10" guides="1" tooltips="1" connect="1" arrows="1" fold="1" page="1" pageScale="1" pageWidth="827" pageHeight="1169" math="0" shadow="0">
      <root>
        <mxCell id="0" />
        <mxCell id="1" parent="0" />
        <mxCell id="24PfZKGWnPwampuboPcT-1" value="Task1" style="rounded=0;whiteSpace=wrap;html=1;" vertex="1" parent="1">
          <mxGeometry x="40" y="200" width="80" height="40" as="geometry" />
        </mxCell>
        <mxCell id="24PfZKGWnPwampuboPcT-9" style="edgeStyle=orthogonalEdgeStyle;rounded=0;orthogonalLoop=1;jettySize=auto;html=1;exitX=1;exitY=0.5;exitDx=0;exitDy=0;entryX=0;entryY=0.5;entryDx=0;entryDy=0;" edge="1" parent="1" source="24PfZKGWnPwampuboPcT-2" target="24PfZKGWnPwampuboPcT-3">
          <mxGeometry relative="1" as="geometry" />
        </mxCell>
        <mxCell id="24PfZKGWnPwampuboPcT-2" value="Task2" style="rounded=0;whiteSpace=wrap;html=1;" vertex="1" parent="1">
          <mxGeometry x="160" y="200" width="80" height="40" as="geometry" />
        </mxCell>
        <mxCell id="24PfZKGWnPwampuboPcT-10" style="edgeStyle=orthogonalEdgeStyle;rounded=0;orthogonalLoop=1;jettySize=auto;html=1;exitX=1;exitY=0.5;exitDx=0;exitDy=0;entryX=0;entryY=0.5;entryDx=0;entryDy=0;" edge="1" parent="1" source="24PfZKGWnPwampuboPcT-3" target="24PfZKGWnPwampuboPcT-4">
          <mxGeometry relative="1" as="geometry" />
        </mxCell>
        <mxCell id="24PfZKGWnPwampuboPcT-11" style="edgeStyle=orthogonalEdgeStyle;rounded=0;orthogonalLoop=1;jettySize=auto;html=1;exitX=1;exitY=0.5;exitDx=0;exitDy=0;entryX=0;entryY=0.5;entryDx=0;entryDy=0;" edge="1" parent="1" source="24PfZKGWnPwampuboPcT-3" target="24PfZKGWnPwampuboPcT-5">
          <mxGeometry relative="1" as="geometry" />
        </mxCell>
        <mxCell id="24PfZKGWnPwampuboPcT-3" value="Task3" style="rounded=0;whiteSpace=wrap;html=1;" vertex="1" parent="1">
          <mxGeometry x="280" y="200" width="80" height="40" as="geometry" />
        </mxCell>
        <mxCell id="24PfZKGWnPwampuboPcT-4" value="Task4" style="rounded=0;whiteSpace=wrap;html=1;" vertex="1" parent="1">
          <mxGeometry x="400" y="160" width="80" height="40" as="geometry" />
        </mxCell>
        <mxCell id="24PfZKGWnPwampuboPcT-5" value="Task5" style="rounded=0;whiteSpace=wrap;html=1;" vertex="1" parent="1">
          <mxGeometry x="400" y="240" width="80" height="40" as="geometry" />
        </mxCell>
        <mxCell id="24PfZKGWnPwampuboPcT-6" value="" style="endArrow=classic;html=1;rounded=0;entryX=0;entryY=0.5;entryDx=0;entryDy=0;exitX=1;exitY=0.5;exitDx=0;exitDy=0;" edge="1" parent="1" source="24PfZKGWnPwampuboPcT-1" target="24PfZKGWnPwampuboPcT-2">
          <mxGeometry width="50" height="50" relative="1" as="geometry">
            <mxPoint x="390" y="320" as="sourcePoint" />
            <mxPoint x="440" y="270" as="targetPoint" />
          </mxGeometry>
        </mxCell>
      </root>
    </mxGraphModel>
  </diagram>
</mxfile>
